<?xml version="1.0" standalone="no"?>
<!DOCTYPE svg PUBLIC "-//W3C//DTD SVG 20010904//EN"
 "http://www.w3.org/TR/2001/REC-SVG-20010904/DTD/svg10.dtd">
<svg version="1.0" xmlns="http://www.w3.org/2000/svg"
 width="100px" height="100px" viewBox="0 0 1280.000000 1217.000000"
 preserveAspectRatio="xMidYMid meet">
<metadata>
Created by potrace 1.15, written by Peter Selinger 2001-2017
</metadata>
<g transform="translate(0.000000,1217.000000) scale(0.100000,-0.100000)"
fill="#ffc107" stroke="orange">
<path d="M4496 11931 c3 -12 15 -53 25 -90 90 -309 164 -700 190 -1001 15
-169 6 -483 -16 -605 -46 -251 -153 -435 -293 -501 -74 -36 -188 -44 -282 -20
-97 24 -238 98 -353 184 -149 111 -373 341 -525 537 -33 43 -16 12 38 -70 173
-259 311 -560 355 -775 24 -115 17 -282 -14 -362 -44 -112 -154 -200 -292
-233 -75 -17 -273 -20 -369 -5 -378 61 -883 288 -1435 646 -71 46 -112 70 -91
52 22 -18 94 -77 160 -131 545 -444 920 -897 1048 -1268 30 -86 32 -104 33
-219 0 -121 -1 -127 -32 -191 -58 -116 -162 -189 -331 -231 -73 -18 -116 -22
-262 -22 -217 0 -412 29 -690 103 -41 11 -76 19 -77 17 -1 -1 48 -22 110 -45
165 -63 397 -180 517 -259 188 -125 294 -232 358 -361 32 -66 37 -86 40 -160
3 -69 0 -97 -18 -143 -139 -372 -866 -631 -1920 -685 l-145 -7 207 -13 c992
-59 1670 -296 1840 -641 31 -62 33 -74 33 -167 0 -96 -2 -105 -37 -176 -63
-126 -175 -240 -357 -360 -120 -79 -356 -198 -518 -260 -116 -44 -143 -60 -57
-34 70 22 353 81 459 96 50 8 167 13 260 13 141 0 185 -4 258 -22 172 -43 280
-119 332 -234 40 -87 46 -219 17 -335 -53 -208 -183 -434 -403 -698 -169 -203
-509 -524 -772 -728 -48 -38 -87 -71 -87 -73 0 -2 53 31 118 74 479 320 934
537 1322 629 142 33 382 43 484 19 143 -34 253 -120 297 -234 31 -80 38 -247
14 -362 -40 -197 -161 -469 -320 -720 -47 -74 -75 -123 -63 -109 13 14 70 81
127 148 247 290 504 486 719 551 101 31 222 25 303 -13 143 -69 247 -247 295
-507 23 -119 26 -548 6 -710 -33 -268 -98 -590 -171 -855 -22 -77 -38 -141
-37 -142 1 -2 22 50 46 115 185 501 433 962 666 1242 229 275 469 414 655 381
232 -40 396 -287 479 -721 25 -129 50 -342 50 -432 0 -39 4 -68 10 -68 6 0 10
29 10 68 0 91 25 303 50 435 176 913 719 967 1289 127 180 -265 355 -617 507
-1022 26 -70 49 -127 50 -125 2 1 -8 41 -22 87 -93 319 -170 720 -195 1020
-14 170 -6 485 16 605 46 253 152 434 294 502 81 38 202 44 303 13 225 -68
508 -293 772 -613 49 -59 90 -107 92 -107 1 0 -34 57 -79 127 -161 252 -295
557 -328 746 -17 101 -7 269 20 339 44 114 154 200 297 234 102 24 342 14 484
-19 375 -89 814 -296 1283 -603 86 -57 157 -102 157 -99 0 2 -39 34 -87 72
-266 207 -602 523 -772 728 -220 264 -350 490 -403 698 -16 62 -19 102 -16
181 4 89 8 108 35 162 58 112 164 184 330 226 73 18 117 22 258 22 94 0 211
-5 260 -13 106 -15 389 -74 459 -96 86 -26 59 -10 -57 34 -162 62 -398 181
-518 260 -182 120 -294 234 -357 360 -35 71 -37 80 -37 176 0 93 2 105 33 167
170 345 852 583 1837 641 l210 12 -210 13 c-578 34 -1034 123 -1374 271 -248
107 -424 257 -481 409 -18 46 -21 74 -18 143 3 74 8 94 40 160 65 131 166 233
358 361 120 79 352 196 517 259 62 23 111 44 110 45 -1 2 -36 -6 -77 -17 -278
-74 -473 -103 -690 -103 -146 0 -189 4 -262 22 -165 41 -273 115 -331 227 -31
58 -32 63 -32 190 0 121 3 137 33 224 129 371 504 825 1048 1268 66 54 138
113 160 131 21 18 -19 -6 -91 -52 -340 -221 -732 -427 -995 -525 -139 -51
-325 -102 -440 -121 -96 -15 -294 -12 -369 5 -138 33 -248 121 -292 233 -31
78 -38 248 -15 361 43 212 183 519 356 776 87 131 82 127 -46 -30 -199 -247
-453 -469 -636 -559 -123 -61 -201 -79 -303 -74 -106 6 -175 38 -247 116 -90
98 -149 232 -185 422 -22 119 -25 569 -5 720 40 295 108 629 176 865 19 66 34
121 32 122 -1 1 -28 -66 -60 -150 -238 -621 -508 -1084 -790 -1355 -185 -178
-375 -262 -522 -232 -233 48 -391 287 -474 720 -25 129 -50 342 -50 433 0 113
-17 74 -23 -55 -9 -159 -40 -370 -77 -512 -90 -352 -238 -546 -445 -586 -78
-15 -181 5 -280 55 -340 169 -708 706 -1004 1465 -40 102 -76 194 -82 205 -8
18 -8 17 -3 -4z m2312 -3080 c1165 -179 2094 -1056 2332 -2201 40 -197 54
-337 54 -570 0 -309 -31 -525 -114 -800 -137 -456 -362 -832 -700 -1171 -237
-238 -458 -398 -745 -539 -789 -389 -1691 -389 -2480 0 -287 141 -508 301
-746 539 -451 453 -719 1007 -800 1656 -16 129 -16 501 0 630 78 627 340 1183
764 1622 155 160 286 270 462 388 361 242 761 394 1175 449 180 24 182 24 430
21 174 -2 270 -9 368 -24z"/>
<path d="M6155 8774 c-16 -2 -82 -11 -145 -20 -554 -75 -1079 -332 -1489 -729
-331 -321 -560 -686 -699 -1115 -93 -288 -126 -508 -126 -835 1 -266 17 -412
73 -640 252 -1025 1092 -1819 2125 -2010 509 -94 1030 -44 1499 144 831 332
1448 1055 1641 1923 48 214 60 335 60 588 0 252 -12 372 -60 590 -218 988
-998 1788 -1979 2031 -229 57 -347 71 -620 74 -137 2 -263 1 -280 -1z"/>
</g>
</svg>
