<svg width="1136" height="815" viewBox="0 0 1136 815" fill="none" xmlns="http://www.w3.org/2000/svg">
<rect width="1136" height="815" fill="#E5E5E5"/>
<g clip-path="url(#clip0)">
<path d="M1529.99 967.91C1511.25 969.791 1492.39 969.497 1473.7 967.032C1268.2 940.514 988.356 948.057 760.237 1113.02C444.752 1341.13 -49.6725 1145.85 -267.773 1039.61C-434.417 958.469 -520.929 759.73 -468.965 573.181C-468.233 570.548 -467.481 567.916 -466.689 565.283C-433.99 454.421 -369.446 367.658 -289.518 321.667C-219.853 281.582 -118.139 197.878 -72.8807 37.041C-54.1841 -29.3717 -28.5372 -91.8471 4.77123 -146.305C93.9663 -292.152 280.689 -509.346 601.824 -507.994C658.128 -507.675 714.011 -496.635 767.268 -475.309C884.59 -428.654 990.551 -333.803 1071.35 -202.306C1122.91 -118.436 1200.18 -40.4721 1310.79 -34.1154C1464.31 -25.2446 1610.81 58.1745 1720.72 206.631C1723.89 210.9 1727.02 215.193 1730.15 219.534C1925.83 491.612 1789.91 941.392 1529.99 967.91Z" fill="black"/>
<g opacity="0.7">
<path opacity="0.7" d="M277.46 697.11C285.082 697.11 291.26 690.932 291.26 683.31C291.26 675.688 285.082 669.51 277.46 669.51C269.838 669.51 263.66 675.688 263.66 683.31C263.66 690.932 269.838 697.11 277.46 697.11Z" fill="url(#paint0_linear)"/>
</g>
<path opacity="0.2" d="M277.46 696.49C284.739 696.49 290.64 690.589 290.64 683.31C290.64 676.031 284.739 670.13 277.46 670.13C270.181 670.13 264.28 676.031 264.28 683.31C264.28 690.589 270.181 696.49 277.46 696.49Z" fill="black"/>
<path d="M203.11 419.24C205.927 419.24 208.21 416.957 208.21 414.14C208.21 411.323 205.927 409.04 203.11 409.04C200.293 409.04 198.01 411.323 198.01 414.14C198.01 416.957 200.293 419.24 203.11 419.24Z" fill="white"/>
<path d="M567.11 715.24C569.927 715.24 572.21 712.957 572.21 710.14C572.21 707.323 569.927 705.04 567.11 705.04C564.293 705.04 562.01 707.323 562.01 710.14C562.01 712.957 564.293 715.24 567.11 715.24Z" fill="white"/>
<path d="M352.11 738.99C353.684 738.99 354.96 737.714 354.96 736.14C354.96 734.566 353.684 733.29 352.11 733.29C350.536 733.29 349.26 734.566 349.26 736.14C349.26 737.714 350.536 738.99 352.11 738.99Z" fill="white"/>
<path d="M983.11 600.99C984.684 600.99 985.96 599.714 985.96 598.14C985.96 596.566 984.684 595.29 983.11 595.29C981.536 595.29 980.26 596.566 980.26 598.14C980.26 599.714 981.536 600.99 983.11 600.99Z" fill="white"/>
<path d="M820.11 344.99C821.684 344.99 822.96 343.714 822.96 342.14C822.96 340.566 821.684 339.29 820.11 339.29C818.536 339.29 817.26 340.566 817.26 342.14C817.26 343.714 818.536 344.99 820.11 344.99Z" fill="white"/>
<path d="M1051.11 469.99C1052.68 469.99 1053.96 468.714 1053.96 467.14C1053.96 465.566 1052.68 464.29 1051.11 464.29C1049.54 464.29 1048.26 465.566 1048.26 467.14C1048.26 468.714 1049.54 469.99 1051.11 469.99Z" fill="white"/>
<path d="M293.11 252.24C295.927 252.24 298.21 249.957 298.21 247.14C298.21 244.323 295.927 242.04 293.11 242.04C290.293 242.04 288.01 244.323 288.01 247.14C288.01 249.957 290.293 252.24 293.11 252.24Z" fill="white"/>
<path d="M152.94 592.21H148.4V587.67H146.55V592.21H142.01V594.06H146.55V598.59H148.4V594.06H152.94V592.21Z" fill="white"/>
<path d="M266.94 590.21H262.4V585.67H260.55V590.21H256.01V592.06H260.55V596.59H262.4V592.06H266.94V590.21Z" fill="white"/>
<path d="M429.94 682.21H425.4V677.67H423.55V682.21H419.01V684.06H423.55V688.59H425.4V684.06H429.94V682.21Z" fill="white"/>
<path d="M899.98 211.07H897.91V209H897.07V211.07H895V211.91H897.07V213.98H897.91V211.91H899.98V211.07Z" fill="white"/>
<path d="M951.97 320.71H949.9V318.64H949.06V320.71H946.99V321.55H949.06V323.62H949.9V321.55H951.97V320.71Z" fill="white"/>
<path d="M777.97 444.71H775.9V442.64H775.06V444.71H772.99V445.55H775.06V447.62H775.9V445.55H777.97V444.71Z" fill="white"/>
<path d="M69.97 522.71H67.9V520.64H67.06V522.71H64.99V523.55H67.06V525.62H67.9V523.55H69.97V522.71Z" fill="white"/>
<path d="M154.97 692.71H152.9V690.64H152.06V692.71H149.99V693.55H152.06V695.62H152.9V693.55H154.97V692.71Z" fill="white"/>
<path d="M197.98 155.07H195.91V153H195.07V155.07H193V155.91H195.07V157.98H195.91V155.91H197.98V155.07Z" fill="white"/>
<path d="M295.97 454.71H293.9V452.64H293.06V454.71H290.99V455.55H293.06V457.62H293.9V455.55H295.97V454.71Z" fill="white"/>
<path d="M322.97 368.71H320.9V366.64H320.06V368.71H317.99V369.55H320.06V371.62H320.9V369.55H322.97V368.71Z" fill="white"/>
<g opacity="0.7">
<path opacity="0.7" d="M748.15 567.17C754.512 567.17 759.67 562.012 759.67 555.65C759.67 549.288 754.512 544.13 748.15 544.13C741.788 544.13 736.63 549.288 736.63 555.65C736.63 562.012 741.788 567.17 748.15 567.17Z" fill="url(#paint1_linear)"/>
</g>
<path opacity="0.2" d="M748.15 566.32C754.043 566.32 758.82 561.543 758.82 555.65C758.82 549.757 754.043 544.98 748.15 544.98C742.257 544.98 737.48 549.757 737.48 555.65C737.48 561.543 742.257 566.32 748.15 566.32Z" fill="black"/>
<path opacity="0.2" d="M776.88 642.69C783.469 642.69 788.81 637.349 788.81 630.76C788.81 624.171 783.469 618.83 776.88 618.83C770.291 618.83 764.95 624.171 764.95 630.76C764.95 637.349 770.291 642.69 776.88 642.69Z" fill="black"/>
<path d="M761.04 311.33C758.263 307.683 754.789 304.624 750.82 302.33V302.33C746.26 299.7 741.156 298.155 735.903 297.813C730.65 297.47 725.389 298.341 720.526 300.357C715.663 302.372 711.329 305.479 707.858 309.437C704.388 313.396 701.874 318.099 700.511 323.184C699.149 328.268 698.974 333.598 700 338.761C701.026 343.924 703.225 348.783 706.429 352.96C709.632 357.137 713.753 360.522 718.473 362.852C723.193 365.183 728.386 366.397 733.65 366.4C734.38 366.4 735.11 366.4 735.82 366.32C742.007 365.93 747.972 363.871 753.083 360.362C758.194 356.854 762.259 352.026 764.846 346.393C767.434 340.76 768.447 334.531 767.779 328.368C767.11 322.205 764.785 316.338 761.05 311.39L761.04 311.33Z" fill="url(#paint2_linear)"/>
<path opacity="0.2" d="M766.09 332.01C766.089 340.26 762.945 348.201 757.298 354.216C751.65 360.231 743.924 363.869 735.69 364.39C735.02 364.39 734.33 364.46 733.64 364.46C728.659 364.463 723.745 363.32 719.277 361.119C714.809 358.918 710.907 355.718 707.874 351.767C704.841 347.817 702.757 343.221 701.785 338.336C700.813 333.451 700.978 328.408 702.267 323.597C703.556 318.786 705.936 314.337 709.22 310.593C712.505 306.849 716.607 303.911 721.21 302.006C725.812 300.102 730.791 299.282 735.761 299.611C740.731 299.939 745.558 301.407 749.87 303.9V303.9C753.629 306.081 756.913 308.991 759.53 312.46V312.46C763.794 318.085 766.098 324.952 766.09 332.01Z" fill="black"/>
<path opacity="0.1" d="M725.65 311.42C723.972 312.142 722.354 312.995 720.81 313.97C719.779 314.533 718.893 315.327 718.22 316.29C717.886 316.775 717.703 317.347 717.692 317.936C717.681 318.525 717.844 319.103 718.16 319.6C718.95 320.68 720.47 320.84 721.81 320.92C723.217 321.099 724.647 320.956 725.99 320.5C726.897 320.051 727.722 319.453 728.43 318.73L731.22 316.2C732.22 315.32 733.22 314.11 732.83 312.87C732.599 312.427 732.262 312.049 731.848 311.769C731.434 311.49 730.957 311.318 730.46 311.27C728.055 310.801 725.561 311.24 723.46 312.5" fill="black"/>
<g opacity="0.1">
<path opacity="0.1" d="M714 346.53C714.944 346.53 715.71 345.764 715.71 344.82C715.71 343.876 714.944 343.11 714 343.11C713.056 343.11 712.29 343.876 712.29 344.82C712.29 345.764 713.056 346.53 714 346.53Z" fill="black"/>
</g>
<g opacity="0.1">
<path opacity="0.1" d="M748.72 340.26C752.177 340.26 754.98 337.457 754.98 334C754.98 330.543 752.177 327.74 748.72 327.74C745.263 327.74 742.46 330.543 742.46 334C742.46 337.457 745.263 340.26 748.72 340.26Z" fill="black"/>
</g>
<g opacity="0.1">
<path opacity="0.1" d="M759.59 312.46C759.572 314.097 759.084 315.694 758.184 317.061C757.284 318.428 756.01 319.507 754.514 320.171C753.017 320.835 751.362 321.055 749.745 320.804C748.127 320.554 746.616 319.844 745.39 318.759C744.164 317.674 743.276 316.26 742.832 314.685C742.387 313.11 742.404 311.44 742.882 309.874C743.359 308.309 744.276 306.913 745.524 305.854C746.772 304.795 748.298 304.117 749.92 303.9V303.9C753.682 306.08 756.97 308.99 759.59 312.46Z" fill="black"/>
</g>
<g opacity="0.1">
<path opacity="0.1" d="M760.17 350.69C757.379 354.664 753.729 357.958 749.491 360.33C745.254 362.701 740.537 364.089 735.69 364.39C735.69 363.94 735.63 363.49 735.63 363.03C735.633 360.182 736.426 357.391 737.922 354.968C739.417 352.544 741.556 350.583 744.101 349.304C746.645 348.025 749.494 347.477 752.332 347.722C755.169 347.966 757.882 348.994 760.17 350.69V350.69Z" fill="black"/>
</g>
<path d="M317.76 496.58C315.824 494.02 313.396 491.871 310.62 490.26V490.26C307.433 488.391 303.858 487.282 300.173 487.021C296.488 486.759 292.792 487.352 289.374 488.753C285.955 490.154 282.906 492.326 280.464 495.098C278.023 497.871 276.254 501.17 275.296 504.738C274.338 508.306 274.217 512.047 274.942 515.67C275.667 519.292 277.218 522.699 279.476 525.624C281.733 528.548 284.635 530.912 287.955 532.532C291.276 534.151 294.926 534.982 298.62 534.96C299.13 534.96 299.62 534.96 300.14 534.91C304.449 534.62 308.599 533.173 312.154 530.721C315.709 528.269 318.537 524.903 320.339 520.979C322.141 517.054 322.851 512.716 322.393 508.422C321.936 504.128 320.328 500.037 317.74 496.58H317.76Z" fill="url(#paint3_linear)"/>
<path opacity="0.2" d="M321.28 511.01C321.279 516.766 319.085 522.306 315.145 526.502C311.205 530.698 305.815 533.236 300.07 533.6C299.6 533.6 299.07 533.6 298.64 533.6C295.168 533.599 291.742 532.8 288.628 531.263C285.515 529.727 282.796 527.495 280.682 524.74C278.569 521.985 277.118 518.781 276.44 515.376C275.763 511.97 275.878 508.455 276.777 505.101C277.675 501.747 279.333 498.645 281.623 496.034C283.912 493.423 286.771 491.374 289.978 490.045C293.186 488.715 296.657 488.142 300.121 488.368C303.586 488.595 306.952 489.615 309.96 491.35V491.35C312.586 492.878 314.878 494.919 316.7 497.35C319.681 501.279 321.29 506.078 321.28 511.01V511.01Z" fill="black"/>
<path opacity="0.1" d="M293.06 496.65C291.891 497.148 290.764 497.74 289.69 498.42C288.974 498.819 288.356 499.373 287.88 500.04C287.658 500.384 287.54 500.785 287.54 501.195C287.54 501.605 287.658 502.006 287.88 502.35C288.212 502.678 288.611 502.929 289.049 503.088C289.488 503.247 289.955 503.309 290.42 503.27C291.403 503.397 292.401 503.298 293.34 502.98C293.976 502.666 294.554 502.247 295.05 501.74L296.99 499.98C297.67 499.36 298.41 498.52 298.11 497.66C297.957 497.345 297.724 497.076 297.435 496.88C297.145 496.683 296.809 496.566 296.46 496.54C294.786 496.212 293.05 496.519 291.59 497.4" fill="black"/>
<g opacity="0.1">
<path opacity="0.1" d="M284.93 521.13C285.587 521.13 286.12 520.597 286.12 519.94C286.12 519.283 285.587 518.75 284.93 518.75C284.273 518.75 283.74 519.283 283.74 519.94C283.74 520.597 284.273 521.13 284.93 521.13Z" fill="black"/>
</g>
<g opacity="0.1">
<path opacity="0.1" d="M309.16 516.77C311.573 516.77 313.53 514.814 313.53 512.4C313.53 509.987 311.573 508.03 309.16 508.03C306.747 508.03 304.79 509.987 304.79 512.4C304.79 514.814 306.747 516.77 309.16 516.77Z" fill="black"/>
</g>
<g opacity="0.1">
<path opacity="0.1" d="M316.71 497.37C316.701 498.523 316.36 499.648 315.728 500.612C315.096 501.576 314.2 502.338 313.147 502.806C312.093 503.274 310.927 503.429 309.788 503.252C308.649 503.075 307.586 502.573 306.724 501.807C305.862 501.042 305.24 500.044 304.93 498.933C304.621 497.823 304.638 496.647 304.979 495.546C305.321 494.445 305.972 493.466 306.855 492.725C307.738 491.985 308.816 491.514 309.96 491.37C312.59 492.897 314.885 494.938 316.71 497.37V497.37Z" fill="black"/>
</g>
<g opacity="0.1">
<path opacity="0.1" d="M317.15 524.04C315.202 526.812 312.656 529.111 309.699 530.766C306.743 532.421 303.452 533.389 300.07 533.6C300.07 533.29 300.07 532.97 300.07 532.6C300.072 530.613 300.625 528.666 301.668 526.975C302.712 525.284 304.204 523.916 305.979 523.024C307.754 522.131 309.742 521.749 311.721 521.919C313.701 522.09 315.594 522.807 317.19 523.99L317.15 524.04Z" fill="black"/>
</g>
<path d="M954.9 430.07C955.916 430.07 956.74 429.246 956.74 428.23C956.74 427.214 955.916 426.39 954.9 426.39C953.884 426.39 953.06 427.214 953.06 428.23C953.06 429.246 953.884 430.07 954.9 430.07Z" fill="white"/>
<path d="M663.641 604.236H639.921L644.151 575.426H659.411L663.641 604.236Z" fill="#535461"/>
<g opacity="0.1">
<path opacity="0.1" d="M642.971 586.866H660.591L659.411 578.816H644.151L642.971 586.866Z" fill="black"/>
</g>
<path d="M655.941 230.256C655.046 229.267 653.953 228.477 652.734 227.936C651.514 227.395 650.195 227.115 648.861 227.115C647.527 227.115 646.208 227.395 644.988 227.936C643.769 228.477 642.676 229.267 641.781 230.256C636.851 235.516 632.391 242.466 628.501 249.856C616.962 272.095 610.994 296.802 611.111 321.856V582.696H686.111V320.756C686.205 296.395 680.526 272.359 669.541 250.616C664.331 240.456 659.591 234.096 655.941 230.256Z" fill="#E0E0E0"/>
<path d="M611.111 326.316L628.901 326.406V348.346H611.111V326.316Z" fill="#535461"/>
<path d="M667.881 326.316L685.671 326.406V348.346H667.881V326.316Z" fill="#535461"/>
<g opacity="0.1">
<path opacity="0.1" d="M635.281 250.236C639.171 242.846 643.631 235.896 648.561 230.636C649.483 229.64 650.599 228.843 651.841 228.296C650.008 227.494 647.97 227.288 646.014 227.708C644.057 228.128 642.283 229.152 640.941 230.636C636.001 235.896 631.541 242.846 627.651 250.236C616.116 272.476 610.149 297.183 610.261 322.236V583.096H617.891V322.256C617.771 297.195 623.739 272.481 635.281 250.236V250.236Z" fill="black"/>
</g>
<path d="M652.111 668.636H651.481C649.964 668.639 648.461 668.342 647.059 667.763C645.656 667.185 644.382 666.335 643.308 665.263C642.234 664.191 641.382 662.918 640.801 661.517C640.22 660.115 639.921 658.613 639.921 657.096V604.236H663.641V657.096C663.641 660.155 662.426 663.089 660.264 665.253C658.102 667.416 655.17 668.633 652.111 668.636Z" fill="url(#paint4_linear)"/>
<path d="M537.391 604.236H513.671L517.901 575.426H533.161L537.391 604.236Z" fill="#535461"/>
<g opacity="0.1">
<path opacity="0.1" d="M516.721 586.866H534.341L533.161 578.816H517.901L516.721 586.866Z" fill="black"/>
</g>
<path d="M585.691 604.236H561.971L566.201 575.426H581.451L585.691 604.236Z" fill="#535461"/>
<g opacity="0.1">
<path opacity="0.1" d="M565.021 586.866H582.641L581.451 578.816H566.201L565.021 586.866Z" fill="black"/>
</g>
<g opacity="0.7">
<path opacity="0.7" d="M693.861 326.016C693.943 300.953 687.938 276.245 676.361 254.016C670.871 243.576 665.861 237.096 662.001 233.106C660.526 231.548 658.601 230.493 656.494 230.087C654.388 229.682 652.208 229.947 650.261 230.846C648.704 231.398 647.297 232.306 646.151 233.496C640.941 238.896 636.231 246.036 632.151 253.626C619.979 276.385 613.665 301.817 613.781 327.626V343.106H603.851V163.096C603.851 125.376 595.411 88.166 578.851 55.166C571.011 39.526 563.851 29.806 558.361 23.836C557.028 22.3167 555.386 21.0994 553.545 20.2654C551.705 19.4314 549.707 19 547.686 19C545.665 19 543.667 19.4314 541.826 20.2654C539.985 21.0994 538.344 22.3167 537.011 23.836C529.571 31.926 522.851 42.626 517.011 53.996C499.621 87.716 490.791 125.996 490.791 164.816V343.036H482.211V326.806C482.32 301.013 476.007 275.599 463.841 252.856C459.731 245.266 455.021 238.126 449.841 232.726C448.336 231.128 446.359 230.054 444.2 229.662C442.04 229.269 439.811 229.579 437.841 230.546L438.201 230.736C436.945 231.295 435.808 232.089 434.851 233.076C431.001 237.076 425.991 243.546 420.501 253.986C408.924 276.215 402.918 300.923 403.001 325.986V594.986H433.641L430.261 617.096V683.226H455.321V617.096L451.971 594.976H482.171V349.976H490.751V593.916H515.221L511.711 617.096V683.226H536.771V617.096L533.261 593.886H566.261L562.731 617.096V683.226H587.791V617.096L584.281 593.886H603.821V350.006H613.751V595.376H621.801V595.006H648.421L645.081 617.096V683.226H670.141V617.096L666.791 594.976H693.861V326.016Z" fill="url(#paint5_linear)"/>
</g>
<path d="M460.291 604.236H436.561L440.801 575.426H456.051L460.291 604.236Z" fill="#535461"/>
<g opacity="0.1">
<path opacity="0.1" d="M439.621 586.866H457.231L456.051 578.816H440.801L439.621 586.866Z" fill="black"/>
</g>
<path d="M440.871 230.256C441.766 229.267 442.859 228.477 444.078 227.936C445.298 227.395 446.617 227.115 447.951 227.115C449.285 227.115 450.604 227.395 451.824 227.936C453.043 228.477 454.136 229.267 455.031 230.256C459.971 235.516 464.421 242.466 468.321 249.856C479.855 272.096 485.822 296.803 485.711 321.856V582.696H410.711V320.756C410.617 296.395 416.295 272.359 427.281 250.616C432.481 240.456 437.221 234.096 440.871 230.256Z" fill="#E0E0E0"/>
<path d="M411.141 326.316L428.941 326.406V348.346H411.141V326.316Z" fill="#535461"/>
<path d="M467.911 326.316L485.711 326.406V348.346H467.911V326.316Z" fill="#535461"/>
<g opacity="0.1">
<path opacity="0.1" d="M468.321 249.516C464.421 242.126 459.971 235.176 455.031 229.916C453.636 228.369 451.772 227.323 449.725 226.938C447.679 226.554 445.562 226.851 443.701 227.786C444.773 228.321 445.741 229.042 446.561 229.916C451.491 235.176 455.951 242.126 459.841 249.516C471.38 271.754 477.348 296.462 477.231 321.516V582.336H485.711V321.526C485.825 296.469 479.857 271.759 468.321 249.516V249.516Z" fill="black"/>
</g>
<path d="M448.751 668.636H448.101C445.04 668.636 442.105 667.42 439.941 665.256C437.777 663.092 436.561 660.157 436.561 657.096V604.236H460.291V657.096C460.291 660.157 459.075 663.092 456.911 665.256C454.747 667.42 451.811 668.636 448.751 668.636Z" fill="url(#paint6_linear)"/>
<path d="M525.861 668.636H525.201C522.142 668.633 519.209 667.416 517.047 665.253C514.885 663.089 513.671 660.155 513.671 657.096V604.236H537.391V657.096C537.391 660.155 536.176 663.089 534.014 665.253C531.852 667.416 528.92 668.633 525.861 668.636Z" fill="url(#paint7_linear)"/>
<path d="M574.151 668.636H573.481C570.425 668.628 567.498 667.409 565.34 665.245C563.183 663.082 561.971 660.151 561.971 657.096V604.236H585.691V657.096C585.691 660.157 584.475 663.092 582.311 665.256C580.147 667.42 577.211 668.636 574.151 668.636Z" fill="url(#paint8_linear)"/>
<g opacity="0.1">
<path opacity="0.1" d="M600.281 177.336H494.371V181.446H600.281V177.336Z" fill="black"/>
</g>
<path d="M556.155 30.3365L556.166 30.3488L556.176 30.3608C561.313 36.0893 568.034 45.4773 575.35 60.6378L575.352 60.6412C590.922 92.5968 598.891 128.716 598.891 165.303V584.593H493.891V166.983C493.891 129.329 502.219 92.2041 518.604 59.5128C524.184 48.4718 530.539 38.1467 537.458 30.3573L537.468 30.347L537.476 30.3365C538.622 28.974 540.051 27.8786 541.664 27.127C543.278 26.3755 545.036 25.986 546.816 25.986C548.596 25.986 550.354 26.3755 551.967 27.127C553.581 27.8786 555.01 28.974 556.155 30.3365Z" fill="#E0E0E0" stroke="black" stroke-width="2"/>
<path d="M563.731 103.986H529.891C523.816 103.986 518.891 108.911 518.891 114.986V118.576C518.891 124.651 523.816 129.576 529.891 129.576H563.731C569.806 129.576 574.731 124.651 574.731 118.576V114.986C574.731 108.911 569.806 103.986 563.731 103.986Z" fill="#535461"/>
</g>
<defs>
<linearGradient id="paint0_linear" x1="277.46" y1="697.11" x2="277.46" y2="669.52" gradientUnits="userSpaceOnUse">
<stop stop-color="#808080" stop-opacity="0.25"/>
<stop offset="0.54" stop-color="#808080" stop-opacity="0.12"/>
<stop offset="1" stop-color="#808080" stop-opacity="0.1"/>
</linearGradient>
<linearGradient id="paint1_linear" x1="17974" y1="13611.5" x2="17974" y2="13080.9" gradientUnits="userSpaceOnUse">
<stop stop-color="#808080" stop-opacity="0.25"/>
<stop offset="0.54" stop-color="#808080" stop-opacity="0.12"/>
<stop offset="1" stop-color="#808080" stop-opacity="0.1"/>
</linearGradient>
<linearGradient id="paint2_linear" x1="53279.2" y1="28395.5" x2="53279.2" y2="23681.3" gradientUnits="userSpaceOnUse">
<stop stop-color="#808080" stop-opacity="0.25"/>
<stop offset="0.54" stop-color="#808080" stop-opacity="0.12"/>
<stop offset="1" stop-color="#808080" stop-opacity="0.1"/>
</linearGradient>
<linearGradient id="paint3_linear" x1="16182.4" y1="28223.7" x2="16182.4" y2="25924.1" gradientUnits="userSpaceOnUse">
<stop stop-color="#808080" stop-opacity="0.25"/>
<stop offset="0.54" stop-color="#808080" stop-opacity="0.12"/>
<stop offset="1" stop-color="#808080" stop-opacity="0.1"/>
</linearGradient>
<linearGradient id="paint4_linear" x1="16302.2" y1="41056.4" x2="16302.2" y2="45203.8" gradientUnits="userSpaceOnUse">
<stop stop-color="#E0E0E0"/>
<stop offset="0.31" stop-color="#FCCC63"/>
<stop offset="0.77" stop-color="#F55F44"/>
</linearGradient>
<linearGradient id="paint5_linear" x1="162393" y1="469733" x2="162393" y2="28507.6" gradientUnits="userSpaceOnUse">
<stop stop-color="#808080" stop-opacity="0.25"/>
<stop offset="0.54" stop-color="#808080" stop-opacity="0.12"/>
<stop offset="1" stop-color="#808080" stop-opacity="0.1"/>
</linearGradient>
<linearGradient id="paint6_linear" x1="448.431" y1="604.236" x2="448.431" y2="668.636" gradientUnits="userSpaceOnUse">
<stop stop-color="#E0E0E0"/>
<stop offset="0.31" stop-color="#FCCC63"/>
<stop offset="0.77" stop-color="#F55F44"/>
</linearGradient>
<linearGradient id="paint7_linear" x1="13181.3" y1="41056.4" x2="13181.3" y2="45203.8" gradientUnits="userSpaceOnUse">
<stop stop-color="#E0E0E0"/>
<stop offset="0.31" stop-color="#FCCC63"/>
<stop offset="0.77" stop-color="#F55F44"/>
</linearGradient>
<linearGradient id="paint8_linear" x1="14375.3" y1="41056.4" x2="14375.3" y2="45203.8" gradientUnits="userSpaceOnUse">
<stop stop-color="#E0E0E0"/>
<stop offset="0.31" stop-color="#FCCC63"/>
<stop offset="0.77" stop-color="#F55F44"/>
</linearGradient>
<clipPath id="clip0">
<rect width="1135.18" height="814.22" fill="white"/>
</clipPath>
</defs>
</svg>
